<svg viewBox="0 0 24 24" xmlns="http://www.w3.org/2000/svg"><g data-name="Layer 2"><path d="M17 20a2.59 2.59 0 0 1-1.88-.78 4.62 4.62 0 0 0-6.25 0 2.64 2.64 0 0 1-3.75 0A4.52 4.52 0 0 0 2 18v2a2.58 2.58 0 0 1 1.87.78 4.61 4.61 0 0 0 6.25 0 2.64 2.64 0 0 1 3.75 0 4.62 4.62 0 0 0 6.25 0A2.59 2.59 0 0 1 22 20v-2a4.53 4.53 0 0 0-3.13 1.22A2.59 2.59 0 0 1 17 20Z" fill="#f0f0f0" class="fill-000000"></path><path d="M17 16a2.59 2.59 0 0 1-1.88-.78 4.62 4.62 0 0 0-6.25 0 2.64 2.64 0 0 1-3.75 0A4.52 4.52 0 0 0 2 14v2a2.58 2.58 0 0 1 1.87.78 4.61 4.61 0 0 0 6.25 0 2.64 2.64 0 0 1 3.75 0 4.62 4.62 0 0 0 6.25 0A2.59 2.59 0 0 1 22 16v-2a4.53 4.53 0 0 0-3.13 1.22A2.59 2.59 0 0 1 17 16ZM5 13h14v-1a7 7 0 0 0-14 0ZM11 2h2v2h-2zM4.232 5.64l1.414-1.414L7.06 5.64 5.646 7.054zM2 11h2v2H2zM20 11h2v2h-2zM16.946 5.646l1.415-1.415 1.414 1.415L18.36 7.06z" fill="#f0f0f0" class="fill-000000"></path></g></svg>