<svg data-name="Layer 1" viewBox="0 0 64 64" xmlns="http://www.w3.org/2000/svg"><circle cx="32" cy="32" r="17" fill="#f0f0f0" class="fill-efcc00"></circle><path d="M32 5v6M32 53v6M59 32h-6M11 32H5M51.09 12.91l-4.24 4.24M17.15 46.85l-4.24 4.24M51.09 51.09l-4.24-4.24M17.15 17.15l-4.24-4.24" fill="none" stroke="#f0f0f0" stroke-linecap="round" stroke-miterlimit="10" stroke-width="3px" class="stroke-efcc00"></path><path d="M24.79 27.75v5.95c0 1.78.67 2.68 1.87 2.68s1.9-.86 1.9-2.68v-5.95h2.33v5.79c0 3.19-1.61 4.7-4.3 4.7s-4.14-1.44-4.14-4.73v-5.76ZM35.35 38.08 32 27.75h2.6l1.26 4.37c.35 1.23.67 2.41.92 3.69.26-1.24.58-2.47.93-3.65l1.32-4.41h2.48l-3.44 10.33Z" fill="#e5d283" class="fill-ffffff"></path></svg>