<svg viewBox="0 0 24 24" xml:space="preserve" xmlns="http://www.w3.org/2000/svg"><path d="M1 9h16c2.2 0 4-1.8 4-4s-1.8-4-4-4-4 1.8-4 4c0 .6.4 1 1 1s1-.4 1-1c0-1.1.9-2 2-2s2 .9 2 2-.9 2-2 2H1c-.6 0-1 .4-1 1s.4 1 1 1zM11 13H1c-.5 0-1 .4-1 1 0 .5.4 1 1 1h10c1.1 0 2 .9 2 2s-.9 2-2 2-2-.9-2-2c0-.6-.4-1-1-1s-1 .4-1 1c0 2.2 1.8 4 4 4s4-1.8 4-4-1.8-4-4-4z" fill="#f0f0f0" class="fill-000000"></path><path d="M20 10H1c-.5 0-1 .4-1 1 0 .5.4 1 1 1h19c1.1 0 2 .9 2 2s-.9 2-2 2-2-.9-2-2c0-.6-.4-1-1-1s-1 .4-1 1c0 2.2 1.8 4 4 4s4-1.8 4-4-1.8-4-4-4z" fill="#f0f0f0" class="fill-000000"></path></svg>