<svg viewBox="0 0 512 512" xmlns="http://www.w3.org/2000/svg"><path d="M230.639 241.344v29.312L256 285.309l25.361-14.653v-29.312L256 226.691l-25.361 14.653z" fill="#f0f0f0" class="fill-000000"></path><path d="m452.56 318.216-42.736 11.405-28.519-16.496 41.245-11.058a13.132 13.132 0 1 0-6.843-25.357l-66.691 17.811-1.842-1.05v-74.938l1.842-1.054 66.69 17.811a11.554 11.554 0 0 0 3.42.527 13.279 13.279 0 0 0 12.726-9.83 13.112 13.112 0 0 0-9.302-16.058l-41.245-11.054 28.519-16.496 42.735 11.405a11.457 11.457 0 0 0 3.424.437 13.117 13.117 0 0 0 3.333-25.793l-35.185-9.478 9.387-35.276a13.123 13.123 0 1 0-25.36-6.757l-11.497 42.646-28.518 16.496 11.058-41.24a13.164 13.164 0 1 0-25.446-6.757l-17.902 66.6-1.842 1.055-64.848-37.384v-2.194l48.79-48.79a13.154 13.154 0 0 0-18.605-18.6l-30.185 30.186V85.94l31.24-31.24a13.154 13.154 0 1 0-18.604-18.6L256 61.9 230.202 36.1a13.154 13.154 0 0 0-18.604 18.6l31.24 31.24v32.996L212.652 88.75a13.154 13.154 0 1 0-18.604 18.6l48.79 48.79v2.193l-64.848 37.384-1.843-1.054-17.902-66.601a13.164 13.164 0 1 0-25.446 6.757l11.054 41.24-6.23-3.595-22.289-12.901-11.405-42.645a13.164 13.164 0 0 0-25.447 6.757l9.388 35.275-35.186 9.388a13.167 13.167 0 0 0 3.334 25.883 11.475 11.475 0 0 0 3.423-.437l42.731-11.405 22.289 12.896 6.23 3.6-41.24 11.054a13.109 13.109 0 0 0-9.302 16.059 13.279 13.279 0 0 0 12.726 9.829 11.554 11.554 0 0 0 3.419-.527l66.69-17.811 1.843 1.054v74.939l-1.843 1.05-66.69-17.902a13.292 13.292 0 0 0-16.145 9.392 13.104 13.104 0 0 0 9.302 16.055l41.24 11.058-28.519 16.496-42.731-11.405a13.123 13.123 0 0 0-6.757 25.36l35.186 9.474-9.388 35.19a13.088 13.088 0 0 0 9.302 16.145 11.43 11.43 0 0 0 3.42.437 13.092 13.092 0 0 0 12.64-9.74l11.49-42.645 28.52-16.496-11.055 41.24a13.107 13.107 0 0 0 9.302 16.06 11.56 11.56 0 0 0 3.424.526 13.277 13.277 0 0 0 12.72-9.829l17.902-66.6 1.843-1.055 64.848 37.384v2.194l-48.79 48.79a13.154 13.154 0 1 0 18.604 18.6l30.186-30.186v32.997l-31.24 31.238a13.154 13.154 0 1 0 18.604 18.6L256 450.102l25.798 25.798a13.137 13.137 0 0 0 18.604 0 13.081 13.081 0 0 0 0-18.6l-31.24-31.24v-32.996l30.186 30.186a13.137 13.137 0 0 0 18.604 0 13.081 13.081 0 0 0 0-18.6l-48.79-48.79v-2.194l64.849-37.384 1.842 1.055 17.901 66.6a13.27 13.27 0 0 0 12.722 9.83 15.36 15.36 0 0 0 3.424-.437 13.245 13.245 0 0 0 9.302-16.149l-11.059-41.24 28.519 16.496 11.496 42.645a13.013 13.013 0 0 0 12.635 9.74 11.44 11.44 0 0 0 3.424-.438 13.04 13.04 0 0 0 9.302-16.059l-9.389-35.275 35.186-9.473a13.123 13.123 0 0 0-6.757-25.361Zm-144.874-39.93a12.908 12.908 0 0 1-6.581 11.32l-38.524 22.29a13.206 13.206 0 0 1-13.162 0l-38.524-22.29a12.908 12.908 0 0 1-6.58-11.32V233.71a13.157 13.157 0 0 1 6.58-11.406l38.524-22.199a13.075 13.075 0 0 1 13.162 0l38.524 22.2a13.157 13.157 0 0 1 6.581 11.405Z" fill="#f0f0f0" class="fill-000000"></path></svg>