<svg viewBox="0 0 64 64" xml:space="preserve" xmlns="http://www.w3.org/2000/svg"><g fill="none" stroke="#f0f0f0" stroke-linecap="round" stroke-linejoin="round" stroke-miterlimit="10" stroke-width="2" class="stroke-231f20"><path d="M39.688 47.191h14.937M54.625 47.191c4.619 0 8.36-3.34 8.36-7.465 0-3.725-3.06-6.817-7.059-7.374h0c0-6.518-5.728-12.552-12.073-12.552-.203 0 .2-.011 0 0-3.36.182-6.339 1.843-8.327 4.362"></path><path d="M43.854 19.801c-.756-7.943-7.813-14.17-16.406-14.17-9.098 0-16.473 6.978-16.473 15.587 0 .834.07 1.654.204 2.452h0c-5.72.675-10.164 5.668-10.164 11.724 0 6.512 5.144 11.797 11.49 11.797h2.772M14.634 58.369l12.907-22.353 12.905 22.353zM27.541 43.355v6.747M27.541 53.785v1.053"></path></g></svg>