<svg viewBox="0 0 64 64" xmlns="http://www.w3.org/2000/svg"><path d="M55.977 28.255A12.015 12.015 0 0 0 44 17a12.193 12.193 0 0 0-1.68.116 14.991 14.991 0 0 0-27.458 1.885A8.01 8.01 0 0 0 7 27a7.803 7.803 0 0 0 .054.916A9.063 9.063 0 0 0 2 36a8.876 8.876 0 0 0 1.219 4.508A1 1 0 0 0 4.08 41h55.66a1 1 0 0 0 .82-.427A7.942 7.942 0 0 0 62 36a8.03 8.03 0 0 0-6.023-7.745ZM9.602 44.568c-.345.37-3.369 3.69-3.369 6.332a4.1 4.1 0 1 0 8.2 0c0-2.642-3.024-5.962-3.369-6.332a1.031 1.031 0 0 0-1.462 0ZM24.269 44.568c-.345.37-3.369 3.69-3.369 6.332a4.1 4.1 0 1 0 8.2 0c0-2.642-3.024-5.962-3.369-6.332a1.03 1.03 0 0 0-1.462 0ZM38.269 44.568c-.345.37-3.369 3.69-3.369 6.332a4.1 4.1 0 1 0 8.2 0c0-2.642-3.024-5.962-3.369-6.332a1.03 1.03 0 0 0-1.462 0ZM53.667 44.25a1.001 1.001 0 0 0-.732.318c-.344.37-3.369 3.69-3.369 6.332a4.1 4.1 0 1 0 8.2 0c0-2.642-3.023-5.962-3.368-6.332a1 1 0 0 0-.731-.318Z" fill="#f0f0f0" class="fill-000000"></path></svg>