<svg viewBox="0 0 512 512" xmlns="http://www.w3.org/2000/svg"><path d="M159.492 155.088h28.168a78.158 78.158 0 0 0-10.617 39.487 78.975 78.975 0 1 0 147.332-39.487h28.168a13.162 13.162 0 1 0 0-26.326h-36.506l5.004-54.668A26.283 26.283 0 0 0 294.802 45.4h-77.655a26.269 26.269 0 0 0-26.154 28.694l4.919 54.669h-36.42a13.162 13.162 0 0 0 0 26.324Zm132.152 20.18a17.55 17.55 0 1 1-17.55 17.55 17.49 17.49 0 0 1 17.55-17.55ZM241.45 216.95a13.162 13.162 0 1 1 26.325 0v21.06a13.162 13.162 0 0 1-26.325 0Zm-22.55-40.366a17.55 17.55 0 1 1-17.55 17.55 17.548 17.548 0 0 1 17.55-17.55Z" fill="#f0f0f0" class="fill-000000"></path><path d="m456.762 249.929-16.05-4.302 4.31-16.05a13.166 13.166 0 0 0-25.433-6.817l-6.303 23.505-65.149 37.615c-.248.141-.445.334-.68.488a114.998 114.998 0 0 0-15.533-16.963 104.958 104.958 0 0 1-151.81 0 115.005 115.005 0 0 0-15.544 16.98c-.24-.162-.446-.36-.699-.505L98.71 246.257l-6.29-23.493a13.165 13.165 0 0 0-25.434 6.808l4.302 16.055-16.05 4.302a13.162 13.162 0 1 0 6.804 25.43l23.51-6.3 65.157 37.62c.249.146.523.197.78.321a114.073 114.073 0 1 0 209.058-.008c.244-.124.51-.172.754-.313l65.152-37.619 23.505 6.298a13.162 13.162 0 1 0 6.804-25.43ZM256.017 413.86a17.55 17.55 0 1 1 17.55-17.55 17.545 17.545 0 0 1-17.55 17.55Zm0-58.614a17.55 17.55 0 1 1 17.55-17.55 17.548 17.548 0 0 1-17.55 17.55Z" fill="#f0f0f0" class="fill-000000"></path></svg>