<svg viewBox="0 0 512 512" xmlns="http://www.w3.org/2000/svg"><path d="M366.5 188.92v.1a57.73 57.73 0 0 0-49.58 87.3 57.73 57.73 0 0 0 87.3-49.57h.1v-37.83ZM201.33 298.16v.12A74 74 0 0 0 140 413.58a74 74 0 0 0 115.3-61.34h.12v-54.08ZM237.32 107.4a40.76 40.76 0 0 0-37 57.79 40.76 40.76 0 0 0 57.79-37h.07v-20.86h-20.86Z" fill="#f8642c" class="fill-60c3e5"></path><path d="M112.78 324.47c-.09.21-.16.43-.25.65M107.43 349.53c0 .9-.06 1.8-.06 2.71a74 74 0 1 0 147.92 0h.12v-74.09h-74.08A73.9 73.9 0 0 0 126 303.21M179.61 112.68c-.09.21-.16.43-.25.64M177.76 138a40.76 40.76 0 0 0 80.32-9.84h.07V87.33h-40.83v.07a40.56 40.56 0 0 0-21.83 6.35M293.32 204.23c-.1.25-.19.51-.3.77M288.84 229.52a57.72 57.72 0 0 0 115.38-2.77h.1v-57.83h-57.83v.1a57.5 57.5 0 0 0-38.7 14.9" fill="none" stroke="#000000" stroke-linecap="round" stroke-linejoin="round" stroke-width="20" class="stroke-02005c"></path></svg>